<?xml version="1.0" encoding="iso-8859-1"?>
<!-- Generator: Adobe Illustrator 19.0.0, SVG Export Plug-In . SVG Version: 6.00 Build 0)  -->
<svg version="1.1" id="Layer_1" xmlns="http://www.w3.org/2000/svg" xmlns:xlink="http://www.w3.org/1999/xlink" x="0px" y="0px"
	 viewBox="0 0 512.006 512.006" style="enable-background:new 0 0 512.006 512.006;" xml:space="preserve">
<g>
	<g>
		<path d="M493.233,50.454c-24.171-24.192-66.219-24.299-90.603,0.107L3.014,461.611c-4.096,4.224-4.011,10.987,0.213,15.083
			c2.091,2.027,4.779,3.029,7.445,3.029c2.773,0,5.547-1.088,7.637-3.221L417.841,65.558c16.128-16.128,44.203-16.128,60.331,0
			c8.064,8.064,12.501,18.773,12.501,30.165c0,11.392-4.437,22.101-12.501,30.165l-22.635,22.635c-4.16,4.16-4.16,10.923,0,15.083
			c4.16,4.16,10.923,4.16,15.083,0l22.635-22.635c12.096-12.075,18.752-28.16,18.752-45.248S505.35,62.55,493.233,50.454z"/>
	</g>
</g>
<g>
</g>
<g>
</g>
<g>
</g>
<g>
</g>
<g>
</g>
<g>
</g>
<g>
</g>
<g>
</g>
<g>
</g>
<g>
</g>
<g>
</g>
<g>
</g>
<g>
</g>
<g>
</g>
<g>
</g>
</svg>
